<svg width="97" height="100" viewBox="0 0 97 100" fill="none" xmlns="http://www.w3.org/2000/svg">
<path d="M0 0H96.242V100H0V0Z" fill="#F7DF1E"/>
<path d="M25.3048 83.5673L32.6699 78.936C34.0908 81.5536 35.3834 83.7684 38.4837 83.7684C41.4556 83.7684 43.3293 82.5605 43.3293 77.862V45.9097H52.3736V77.9949C52.3736 87.7282 46.8826 92.1586 38.8714 92.1586C31.6363 92.1586 27.4365 88.2651 25.3047 83.5665" fill="black"/>
<path d="M57.2871 82.5605L64.6513 78.1302C66.5899 81.4197 69.1094 83.836 73.5668 83.836C77.3143 83.836 79.704 81.8892 79.704 79.2041C79.704 75.9821 77.2492 74.8408 73.1145 72.9619L70.854 71.9543C64.3287 69.0684 60.0001 65.4437 60.0001 57.7911C60.0001 50.7429 65.1683 45.3726 73.244 45.3726C78.9938 45.3726 83.1284 47.4537 86.0998 52.891L79.058 57.5895C77.5074 54.7033 75.8282 53.5624 73.2442 53.5624C70.5954 53.5624 68.9156 55.3076 68.9156 57.5895C68.9156 60.4089 70.5954 61.5503 74.4712 63.2957L76.7321 64.3025C84.42 67.7262 88.7486 71.2164 88.7486 79.0698C88.7486 87.5283 82.353 92.1595 73.7608 92.1595C65.3624 92.1595 59.9356 87.9979 57.2873 82.5605" fill="black"/>
</svg>
