<svg width="100" height="100" viewBox="0 0 100 100" fill="none" xmlns="http://www.w3.org/2000/svg">
<path d="M0 50V100H50H100V50V0H50H0V50Z" fill="#007ACC"/>
<path d="M22.114 50.3318L22.0822 54.427L28.5902 54.427H35.0981V72.9191V91.4111H39.7013H44.3044V72.9191L44.3044 54.427H50.8124H57.3203V50.4111C57.3203 48.1889 57.2727 46.3318 57.2092 46.2841C57.1616 46.2207 49.2409 46.1889 39.6378 46.2048L22.1616 46.2524L22.114 50.3318Z" fill="white"/>
<path d="M80.6897 46.1362C83.2294 46.7712 85.1659 47.8981 86.9437 49.7394C87.8643 50.7235 89.2294 52.5172 89.3405 52.9458C89.3722 53.0727 85.023 55.9934 82.3881 57.6283C82.2929 57.6918 81.9119 57.2791 81.4834 56.6442C80.1976 54.7711 78.8484 53.9616 76.7849 53.8188C73.7532 53.6124 71.8008 55.1997 71.8167 57.8505C71.8167 58.6283 71.9278 59.0886 72.2453 59.7235C72.9119 61.1045 74.15 61.9299 78.0389 63.6124C85.1976 66.6918 88.2611 68.7235 90.1659 71.6124C92.2929 74.8346 92.7691 79.9775 91.3246 83.8029C89.7373 87.9616 85.8008 90.787 80.2611 91.7235C78.5468 92.0251 74.4834 91.9775 72.6421 91.6442C68.6262 90.9299 64.8167 88.9458 62.4675 86.3426C61.5468 85.3267 59.7532 82.6759 59.8643 82.4854C59.9119 82.4219 60.3246 82.168 60.7849 81.8981C61.2294 81.6442 62.9119 80.6759 64.4992 79.7553L67.3722 78.0886L67.9754 78.9775C68.8167 80.2632 70.658 82.0251 71.7691 82.6124C74.9595 84.295 79.3405 84.0569 81.4992 82.1204C82.4199 81.2791 82.8008 80.4061 82.8008 79.1204C82.8008 77.9616 82.658 77.4537 82.0548 76.5807C81.277 75.4696 79.6897 74.5331 75.1818 72.5807C70.023 70.3584 67.8008 68.9775 65.7691 66.787C64.5945 65.5172 63.4834 63.4854 63.023 61.787C62.6421 60.3743 62.5468 56.8346 62.8484 55.4061C63.9119 50.4219 67.6738 46.9458 73.1024 45.914C74.8643 45.5807 78.9595 45.7077 80.6897 46.1362Z" fill="white"/>
</svg>
